<svg width="17" height="17" viewBox="0 0 17 17" fill="none" xmlns="http://www.w3.org/2000/svg">
<path fill-rule="evenodd" clip-rule="evenodd" d="M7.15789 15.2105C7.15789 14.9732 7.06363 14.7456 6.89583 14.5779C6.72804 14.4101 6.50046 14.3158 6.26316 14.3158H1.78947V1.78947H6.26316C6.50046 1.78947 6.72804 1.69521 6.89583 1.52741C7.06363 1.35962 7.15789 1.13204 7.15789 0.894737C7.15789 0.657438 7.06363 0.429858 6.89583 0.262062C6.72804 0.0942666 6.50046 0 6.26316 0H1.78947C1.31488 0 0.859716 0.188533 0.524125 0.524125C0.188533 0.859716 0 1.31488 0 1.78947V14.3158C0 14.7904 0.188533 15.2455 0.524125 15.5811C0.859716 15.9167 1.31488 16.1053 1.78947 16.1053H6.26316C6.50046 16.1053 6.72804 16.011 6.89583 15.8432C7.06363 15.6754 7.15789 15.4478 7.15789 15.2105Z" fill="black"/>
<path d="M4.72958 7.40439C4.56592 7.57074 4.47404 7.79465 4.47368 8.02802V8.03339C4.47415 8.26979 4.56844 8.49635 4.73584 8.66328L8.31479 12.2422C8.39733 12.3277 8.49606 12.3958 8.60522 12.4427C8.71438 12.4896 8.83179 12.5143 8.95059 12.5153C9.06939 12.5164 9.18721 12.4937 9.29717 12.4488C9.40713 12.4038 9.50703 12.3373 9.59104 12.2533C9.67505 12.1693 9.74148 12.0694 9.78647 11.9595C9.83146 11.8495 9.8541 11.7317 9.85307 11.6129C9.85203 11.4941 9.82735 11.3767 9.78046 11.2675C9.73357 11.1583 9.6654 11.0596 9.57995 10.9771L7.52832 8.92544L16.1053 8.92544C16.3426 8.92544 16.5701 8.83117 16.7379 8.66338C16.9057 8.49558 17 8.268 17 8.0307C17 7.7934 16.9057 7.56582 16.7379 7.39803C16.5701 7.23023 16.3426 7.13596 16.1053 7.13596L7.52832 7.13596L9.57995 5.08433C9.74293 4.91558 9.83312 4.68957 9.83108 4.45497C9.82904 4.22038 9.73494 3.99597 9.56905 3.83007C9.40316 3.66418 9.17875 3.57008 8.94415 3.56805C8.70955 3.56601 8.48354 3.65619 8.31479 3.81917L4.73584 7.39812L4.72958 7.40439Z" fill="black"/>
</svg>
