<svg width="17" height="17" viewBox="0 0 17 17" fill="none" xmlns="http://www.w3.org/2000/svg">
<path fill-rule="evenodd" clip-rule="evenodd" d="M7.15789 15.2105C7.15789 14.9732 7.06363 14.7456 6.89583 14.5779C6.72804 14.4101 6.50046 14.3158 6.26316 14.3158H1.78947V1.78947H6.26316C6.50046 1.78947 6.72804 1.69521 6.89583 1.52741C7.06363 1.35962 7.15789 1.13204 7.15789 0.894737C7.15789 0.657438 7.06363 0.429858 6.89583 0.262062C6.72804 0.0942666 6.50046 0 6.26316 0H1.78947C1.31488 0 0.859716 0.188533 0.524125 0.524125C0.188533 0.859716 0 1.31488 0 1.78947V14.3158C0 14.7904 0.188533 15.2455 0.524125 15.5811C0.859716 15.9167 1.31488 16.1053 1.78947 16.1053H6.26316C6.50046 16.1053 6.72804 16.011 6.89583 15.8432C7.06363 15.6754 7.15789 15.4478 7.15789 15.2105Z" fill="black"/>
<path d="M16.7441 8.67896C16.9078 8.5126 16.9997 8.28869 17 8.05533V8.04996C16.9995 7.81355 16.9053 7.58699 16.7379 7.42006L13.1589 3.84112C13.0764 3.75566 12.9776 3.6875 12.8685 3.6406C12.7593 3.59371 12.6419 3.56903 12.5231 3.568C12.4043 3.56696 12.2865 3.5896 12.1765 3.63459C12.0666 3.67958 11.9667 3.74602 11.8827 3.83002C11.7986 3.91403 11.7322 4.01393 11.6872 4.12389C11.6422 4.23385 11.6196 4.35167 11.6206 4.47047C11.6217 4.58928 11.6463 4.70668 11.6932 4.81585C11.7401 4.92501 11.8083 5.02374 11.8937 5.10627L13.9454 7.1579H5.36843C5.13113 7.1579 4.90355 7.25217 4.73576 7.41997C4.56796 7.58776 4.47369 7.81534 4.47369 8.05264C4.47369 8.28994 4.56796 8.51752 4.73576 8.68532C4.90355 8.85311 5.13113 8.94738 5.36843 8.94738H13.9454L11.8937 10.999C11.7308 11.1678 11.6406 11.3938 11.6426 11.6284C11.6447 11.863 11.7388 12.0874 11.9046 12.2533C12.0705 12.4192 12.2949 12.5133 12.5295 12.5153C12.7641 12.5173 12.9902 12.4272 13.1589 12.2642L16.7379 8.68522L16.7441 8.67896Z" fill="black"/>
</svg>
